<?xml version="1.0" encoding="utf-8"?>
<!-- Generator: Adobe Illustrator 24.0.3, SVG Export Plug-In . SVG Version: 6.00 Build 0)  -->
<svg version="1.1" id="Layer_1" xmlns="http://www.w3.org/2000/svg" xmlns:xlink="http://www.w3.org/1999/xlink" x="0px" y="0px"
	 viewBox="0 0 365 560" style="enable-background:new 0 0 365 560;" xml:space="preserve">
<style type="text/css">
	.st0{fill:none;stroke:#4D4243;stroke-width:34;stroke-miterlimit:10;}
	.st1{fill:#FA903A;}
	.st2{fill:#FFFFFB;}
	.st3{fill:#4D4243;}
</style>
<path class="st0" d="M136.1,389.4c1.8,1.6,3.6,3.2,5.4,4.8l16.3,16.7c6.3,8.3,13,17.9,17,27.3c2.5,5.8,4,11.6,3.8,17.1
	c-2.4,55.5-16.8,99,3.8,85.2c0,0,55.2-53.4,84.3-129.6c7-18.4,12.5-38.1,15.3-58.7c0-0.3,0.1-0.6,0.1-0.9
	c40.5-24.5,66.6-63.6,66.6-107.6c0-21.7-6.3-42.1-17.6-60.3c-1.1-23.6-6.9-45.8-16.3-65.5c-0.1-0.1-0.1-0.3-0.2-0.4
	c14.9-38.4,5.3-98,5.3-98s-45,6.6-77,26c-16.5-7.5-34.6-11.7-53.5-11.7s-37,4.2-53.5,11.7c-32.1-19.4-77.1-26-77.1-26
	s-9.7,59.6,5.3,98c0,0.1-0.1,0.1-0.1,0.2c-6.7,14-11.5,29.2-14.2,45.2c-20.9,22.5-33.4,50.5-33.4,80.8c0,48,31.1,90.1,78,113.9
	L136.1,389.4z"/>
<path class="st1" d="M348.7,243.5c0-74.2-74.4-134.4-166.2-134.4S16.3,169.3,16.3,243.5c0,48,31.1,90.1,78,113.9
	c13.8,9.4,28.5,20.3,41.8,31.9l55.9,0.4l5.6-12.4c12.3-0.9,24.2-2.9,35.6-5.8l3.3,5.8l7.4-8.9C305.3,348.8,348.7,300.2,348.7,243.5z
	"/>
<path class="st2" d="M214.8,339.1L192,389.8l-55.9-0.4c1.8,1.6,3.6,3.2,5.4,4.8l16.3,16.7c6.3,8.3,13,17.9,17,27.3
	c2.5,5.8,4,11.6,3.8,17.1c-2.4,55.5-16.8,99,3.8,85.2c0,0,55.2-53.4,84.3-129.6c7-18.4,12.5-38.1,15.3-58.7
	c1.2-8.8,1.5-19.1,0.9-30.4l-46.5,55.7L214.8,339.1z"/>
<path class="st1" d="M314.8,117.8c-0.1-0.1-0.1-0.3-0.2-0.4c14.9-38.4,5.3-98,5.3-98s-45,6.6-77,26c-16.5-7.5-34.6-11.7-53.5-11.7
	s-37,4.2-53.5,11.7c-32.1-19.4-77.1-26-77.1-26s-9.7,59.6,5.3,98c0,0.1-0.1,0.1-0.1,0.2c25.6,14.5,52.7,42.1,74.2,78.3
	c20.4,34.2,31.8,69.4,33.8,98.5h17.3h17.8c2-29.1,13.5-64.3,33.8-98.5C262.4,159.8,289.3,132.3,314.8,117.8z"/>
<path class="st2" d="M347.7,178.6l-17.6-7.1c0-0.1,0-0.2,0-0.3l14.9-14.3l-17.6-1.6l11.6-22.3l-16.1,5.4l11.1-18.7l-19.3-1.9
	c-25.4,14.6-52.4,42.1-73.8,78c-20.4,34.2-31.8,69.4-33.8,98.5h3.6c95-46.2,120.6-94.7,120.6-94.7h-0.2L347.7,178.6z"/>
<path class="st2" d="M138.1,195.8c-21.6-36.2-48.7-63.8-74.2-78.3c0,0,0,0.1,0,0.1l0-0.1l-19.3,1.9l11.1,18.7l-16.1-5.4L51.1,155
	l-17.6,1.6l14.9,14.2c0,0.1,0,0.2,0,0.3l-17.6,7.1l16.5,20.9c0,0.1,0,0.3,0,0.4h-0.2c0,0,25.6,48.4,120.6,94.7h4.1
	C169.9,265.2,158.4,230,138.1,195.8z"/>
<path class="st2" d="M93.8,62.4c6-4.4,12.1-8.1,18.3-11.3c-15.3-9.6-39.3-11.7-39.3-11.7s-2.4,22.1,2.7,39.1
	C80.9,72.8,87,67.3,93.8,62.4z"/>
<path class="st2" d="M284.8,62.4c-6-4.4-12.1-8.1-18.3-11.3c15.3-9.6,39.3-11.7,39.3-11.7s2.4,22.1-2.7,39.1
	C297.7,72.8,291.6,67.3,284.8,62.4z"/>
<path class="st3" d="M206.8,294.3c0-0.2,0.1-0.3,0.1-0.5c0-6.6-17.6-25.2-17.6-25.2s-17.6,18.6-17.6,25.2c0,0.2,0.1,0.3,0.1,0.5
	H206.8z"/>
<path class="st3" d="M130.4,207.4c0,5.5-4.4,9.9-9.9,9.9c-5.5,0-9.9-4.4-9.9-9.9c0-5.5,4.4-9.9,9.9-9.9
	C126,197.5,130.4,201.9,130.4,207.4z"/>
<path class="st3" d="M268.2,207.4c0,5.5-4.4,9.9-9.9,9.9c-5.5,0-9.9-4.4-9.9-9.9c0-5.5,4.4-9.9,9.9-9.9
	C263.8,197.5,268.2,201.9,268.2,207.4z"/>
</svg>
